<?xml version="1.0" encoding="UTF-8"?>
<!DOCTYPE svg PUBLIC "-//W3C//DTD SVG 1.1//EN" "http://www.w3.org/Graphics/SVG/1.1/DTD/svg11.dtd">
<!-- Creator: CorelDRAW 2017 -->
<svg xmlns="http://www.w3.org/2000/svg" xml:space="preserve" width="0.665in" height="0.126in" version="1.1" style="shape-rendering:geometricPrecision; text-rendering:geometricPrecision; image-rendering:optimizeQuality; fill-rule:evenodd; clip-rule:evenodd"
viewBox="0 0 665 126"
 xmlns:xlink="http://www.w3.org/1999/xlink">
 <defs>
  <style type="text/css">
   <![CDATA[
    .fil2 {fill:#B3B3B3}
    .fil1 {fill:white}
    .fil0 {fill:white;fill-rule:nonzero}
   ]]>
  </style>
 </defs>
 <g id="Layer_x0020_1">
  <metadata id="CorelCorpID_0Corel-Layer"/>
  <g id="_2482195599648">
   <path class="fil0" d="M0 123l55 0 0 -17 -28 0 28 -35 0 -13 -53 0 0 17 27 0 -28 35 0 13 -1 0zm129 -26c1,-2 1,-4 1,-7 0,-10 -3,-18 -10,-25 -7,-7 -15,-10 -25,-10 -10,0 -18,3 -25,10 -7,7 -10,15 -10,25 0,10 3,18 10,25 7,7 15,10 26,10 14,0 26,-7 32,-18l-18 -4c-3,4 -8,6 -13,6 -8,0 -14,-5 -16,-12l49 0 -1 0zm-49 -14c2,-7 8,-11 15,-11 7,0 13,4 15,11l-30 0zm57 40l19 0 0 -37c0,-7 5,-13 12,-13 7,0 12,5 12,13l0 37 19 0 0 -42c0,-7 -2,-13 -7,-18 -5,-5 -11,-7 -18,-7 -8,0 -14,3 -18,8l0 -7 -19 0 0 66zm68 -49l9 0 0 28c0,6 2,11 7,15 4,4 10,6 16,6l11 0 0 -18 -8 0c-4,0 -7,-3 -7,-7l0 -25 15 0 0 -16 -15 0 0 -13 -19 0 0 13 -9 0 0 16 0 1zm70 49l0 -66 -19 0 0 66 19 0zm132 -49c-2,-11 -11,-18 -26,-18 -16,0 -27,7 -27,21 0,10 5,16 17,19l12 4c4,1 7,3 7,5 0,3 -4,5 -9,5 -6,0 -10,-2 -11,-7l-17 2c2,13 12,20 28,20 16,0 27,-7 27,-21 0,-10 -5,-16 -19,-20l-12 -4c-3,-1 -5,-3 -5,-4 0,-3 3,-4 7,-4 5,0 9,2 10,6l17 -3 1 -1z"/>
   <path class="fil0" d="M258 50c2,2 5,3 8,3 3,0 6,-1 8,-3 2,-2 3,-5 3,-8 0,-3 -1,-6 -3,-8 -2,-2 -5,-3 -8,-3 -3,0 -6,1 -8,3 -2,2 -3,5 -3,8 0,3 1,6 3,8l0 0z"/>
   <polygon class="fil0" points="330,123 352,123 328,89 351,58 328,58 317,75 305,58 283,58 305,89 281,123 304,123 317,104 "/>
   <path class="fil0" d="M504 125l-17 0 -4 -5c-6,4 -13,6 -21,6 -8,0 -14,-2 -21,-5 -6,-4 -11,-8 -14,-15 -3,-6 -5,-13 -5,-21 0,-8 2,-14 5,-21 3,-6 8,-11 14,-15 6,-4 13,-5 21,-5 8,0 14,2 21,5 6,4 11,8 14,15 4,6 5,13 5,21 0,10 -3,19 -9,26l12 13zm-43 -15c4,0 7,-1 10,-2l-17 -19 17 0 9 10c2,-4 4,-8 4,-13 0,-7 -2,-13 -7,-17 -4,-5 -10,-7 -16,-7 -7,0 -12,2 -16,7 -4,5 -7,10 -7,17 0,7 2,13 7,17 4,5 10,7 16,7zm50 15l0 -79 20 0 23 54 25 -54 17 0 0 79 -17 0 0 -46 -20 46 -12 0 -20 -46 0 46 -17 0zm125 1c-9,0 -16,-3 -21,-8 -6,-5 -8,-12 -8,-19l16 0c0,3 1,6 4,8 2,2 6,3 10,3 4,0 7,-1 9,-2 2,-2 3,-4 3,-6 0,-1 0,-3 -1,-4 -1,-1 -2,-2 -4,-3 -2,-1 -3,-1 -5,-2 -2,-1 -4,-1 -7,-2 -2,-1 -5,-1 -7,-2 -2,-1 -4,-2 -7,-3 -2,-1 -4,-3 -5,-4 -2,-2 -3,-4 -4,-6 -1,-2 -1,-5 -1,-8 0,-7 3,-12 8,-17 5,-4 12,-7 19,-7 4,0 7,0 10,1 3,1 6,2 8,4 2,2 4,4 6,6 1,2 3,5 3,7 1,3 1,5 1,8l-17 0c0,-3 -1,-6 -3,-8 -2,-2 -5,-3 -8,-3 -3,0 -6,1 -7,2 -2,1 -3,3 -3,5 0,1 0,3 1,4 1,1 2,2 4,2 2,1 3,1 6,2 2,1 4,1 7,2 2,1 5,1 7,2 2,1 4,2 7,3 2,1 4,3 6,4 2,2 3,4 4,6 1,3 1,5 1,9 0,7 -3,13 -8,17 -5,5 -12,7 -21,7z"/>
   <path class="fil1" d="M235 0c-30,10 -101,25 -114,54 6,-28 58,-41 76,0l39 -54 -1 0z"/>
   <path class="fil2" d="M235 0c0,0 -69,19 -85,29 0,0 -25,4 -29,25l114 -54 0 0z"/>
   <path class="fil1" d="M120 54l50 -24c-2,-3 -41,-6 -50,24z"/>
  </g>
 </g>
</svg>
