<svg xmlns="http://www.w3.org/2000/svg" viewBox="0 0 239.89 69.87"><defs><style>.cls-1{fill:#fff;stroke:#fff;stroke-miterlimit:10;}</style></defs><title>logo-light_4</title><g id="Layer_2" data-name="Layer 2"><g id="Layer_1-2" data-name="Layer 1"><path class="cls-1" d="M95.58,22.48H85v-7h29.57v7H104V55.4H95.58Z"/><path class="cls-1" d="M124.71,36.9V55.4h-8.1V25.87h8.1v3.62a10.18,10.18,0,0,1,8.16-4.3,6.29,6.29,0,0,1,2.77.62l-.56,6.87a10.83,10.83,0,0,0-3.24-.57C128.89,32.11,126.33,34,124.71,36.9Z"/><path class="cls-1" d="M162.85,28.83v-3h8V55.4h-8v-3a13.85,13.85,0,0,1-9.66,3.65A15.15,15.15,0,0,1,138,40.63a15.14,15.14,0,0,1,15.22-15.44A13.88,13.88,0,0,1,162.85,28.83Zm0,15.62V36.81a8.73,8.73,0,0,0-7.95-4.7,8.53,8.53,0,1,0,0,17A8.72,8.72,0,0,0,162.85,44.45Z"/><path class="cls-1" d="M176.7,40.63c0-8.63,7.24-15.44,16.93-15.44a17.93,17.93,0,0,1,11.51,4l-4,5.84a12.21,12.21,0,0,0-7.45-2.88,8.53,8.53,0,1,0,0,17,12,12,0,0,0,7.62-3.11l4.51,5.47a17.54,17.54,0,0,1-12.19,4.56C183.94,56.08,176.7,49.27,176.7,40.63Z"/><path class="cls-1" d="M222,42.49h-2.5V55.4h-8.1V13.79h8.1v22h2.62l6.39-9.89h9.13l-8.95,13.28L239,55.4h-9Z"/><path class="cls-1" d="M54.13,69.37H15.74A15.26,15.26,0,0,1,.5,54.13V15.74A15.26,15.26,0,0,1,15.74.5H54.13A15.26,15.26,0,0,1,69.37,15.74V54.13A15.26,15.26,0,0,1,54.13,69.37Zm-38.39-66A12.39,12.39,0,0,0,3.37,15.74V54.13A12.39,12.39,0,0,0,15.74,66.5H54.13A12.39,12.39,0,0,0,66.5,54.13V15.74A12.39,12.39,0,0,0,54.13,3.37Z"/><rect class="cls-1" x="29.43" y="22.43" width="27.04" height="4" rx="2"/><rect class="cls-1" x="29.58" y="44.83" width="27.04" height="4" rx="2"/><path class="cls-1" d="M10.61,25.21a1.86,1.86,0,0,0-1.44,3L13.88,34a1.69,1.69,0,0,0,1.41.62,1.78,1.78,0,0,0,1.41-.84L26.48,18h0a.5.5,0,0,0-.13-.59.51.51,0,0,0-.73,0l0,0h0L15.73,28.64a.42.42,0,0,1-.6,0h0l-3.27-3a1.84,1.84,0,0,0-1.24-.49Z"/><path class="cls-1" d="M11.15,45.25a1.89,1.89,0,0,0-1.89,1.9,1.92,1.92,0,0,0,.42,1.19l4.82,5.89a1.71,1.71,0,0,0,1.43.64A1.81,1.81,0,0,0,17.38,54l10-16.1h0a.5.5,0,0,0-.13-.61.53.53,0,0,0-.75,0l0,0h0L16.39,48.75a.44.44,0,0,1-.62,0h0l-3.35-3a1.87,1.87,0,0,0-1.27-.49Z"/></g></g></svg>