<svg xmlns="http://www.w3.org/2000/svg" viewBox="0 0 206.6 69.87"><defs><style>.cls-1{fill:#333;}.cls-2,.cls-3{fill:#0a66c2;}.cls-2{stroke:#0a66c2;stroke-miterlimit:10;}</style></defs><title>logo-dark_3</title><g id="Layer_2" data-name="Layer 2"><g id="Layer_1-2" data-name="Layer 1"><path class="cls-1" d="M93.36,33.66H85V28.15h23.35v5.51H100v26h-6.6Z"/><path class="cls-1" d="M116.36,45.05V59.66H110V36.34h6.4V39.2a8,8,0,0,1,6.44-3.4,4.88,4.88,0,0,1,2.19.5l-.45,5.42a8.45,8.45,0,0,0-2.55-.45C119.66,41.27,117.64,42.76,116.36,45.05Z"/><path class="cls-1" d="M146.48,38.68V36.34h6.32V59.66h-6.32V57.32a11,11,0,0,1-7.63,2.88,12,12,0,0,1-12-12.2,12,12,0,0,1,12-12.2A11,11,0,0,1,146.48,38.68Zm0,12.34V45a6.91,6.91,0,0,0-6.28-3.71,6.73,6.73,0,1,0,0,13.46A6.91,6.91,0,0,0,146.48,51Z"/><path class="cls-1" d="M157.41,48c0-6.82,5.72-12.2,13.37-12.2a14.12,14.12,0,0,1,9.09,3.13l-3.16,4.61a9.59,9.59,0,0,0-5.88-2.27,6.73,6.73,0,1,0,0,13.46,9.47,9.47,0,0,0,6-2.45l3.56,4.32a13.89,13.89,0,0,1-9.63,3.6C163.13,60.2,157.41,54.82,157.41,48Z"/><path class="cls-1" d="M193.2,49.46h-2v10.2h-6.4V26.8h6.4V44.15h2.07l5-7.81h7.21l-7.07,10.49,8.12,12.83h-7.09Z"/><path class="cls-1" d="M85.8,16.7l6.65-7.95H86.12V6.25h9.75v2.5l-6.65,8h6.9v2.49H85.8Z"/><path class="cls-1" d="M101,13.65a4.13,4.13,0,0,0,4.19,3.4,5.4,5.4,0,0,0,3.85-1.7l2,1.8a7.6,7.6,0,0,1-5.73,2.34c-4.29,0-7.17-3-7.17-6.77a6.77,6.77,0,0,1,7-6.77,6.5,6.5,0,0,1,6.73,6.52,5.54,5.54,0,0,1-.13,1.18Zm.12-2.35h7.68a3.81,3.81,0,0,0-3.74-2.9A4.16,4.16,0,0,0,101.15,11.3Z"/><path class="cls-1" d="M117.3,19.19h-2.85V6.25h2.85v1.5A5.39,5.39,0,0,1,121.17,6a5.06,5.06,0,0,1,5.27,5.4v7.84h-2.85V11.5a2.85,2.85,0,0,0-3-3,4.47,4.47,0,0,0-3.32,2.1Z"/><path class="cls-1" d="M133.24,14.9c0,1.45.6,2.1,2.3,2.1.35,0,.88,0,1.13-.05V19.4a11.6,11.6,0,0,1-1.38.09c-3.37,0-4.89-1.39-4.89-4.57V8.75h-2.15V6.25h2.15V2.75l2.84-.25V6.25h3.28v2.5h-3.28Z"/><path class="cls-1" d="M140.66,1a1.74,1.74,0,0,1,1.77,1.77,1.78,1.78,0,1,1-3.55,0A1.75,1.75,0,0,1,140.66,1Zm-1.43,5.3h2.85V19.19h-2.85Z"/><path class="cls-1" d="M150.56,14.5l-3.2,4.69h-3.15l4.55-6.59-4.23-6.35h3.15l2.88,4.45,2.87-4.45h3.15l-4.22,6.35,4.55,6.59h-3.15Z"/><path class="cls-1" d="M159.51,15.45a4.5,4.5,0,0,0,3.35,1.6c1.37,0,2.22-.6,2.22-1.55s-.6-1.45-2.47-1.83c-2.9-.57-4.23-1.92-4.23-4.07S160.13,6,162.93,6a6.67,6.67,0,0,1,4.48,1.75l-1.53,1.92a4.32,4.32,0,0,0-2.72-1.22c-1.1,0-1.93.47-1.93,1.25s.7,1.45,2.3,1.77c3.05.63,4.4,1.93,4.4,4.13s-1.8,3.94-4.87,3.94a6.74,6.74,0,0,1-5.15-2.14Z"/><path class="cls-2" d="M54.13,69.37H15.74A15.26,15.26,0,0,1,.5,54.13V15.74A15.26,15.26,0,0,1,15.74.5H54.13A15.26,15.26,0,0,1,69.37,15.74V54.13A15.26,15.26,0,0,1,54.13,69.37Zm-38.39-66A12.39,12.39,0,0,0,3.37,15.74V54.13A12.39,12.39,0,0,0,15.74,66.5H54.13A12.39,12.39,0,0,0,66.5,54.13V15.74A12.39,12.39,0,0,0,54.13,3.37Z"/><rect class="cls-3" x="29.43" y="22.43" width="27.04" height="4" rx="2"/><rect class="cls-3" x="29.58" y="44.83" width="27.04" height="4" rx="2"/><path class="cls-2" d="M10.61,25.21a1.86,1.86,0,0,0-1.44,3L13.88,34a1.69,1.69,0,0,0,1.41.62,1.78,1.78,0,0,0,1.41-.84L26.48,18h0a.5.5,0,0,0-.13-.59.51.51,0,0,0-.73,0l0,0h0L15.73,28.64a.42.42,0,0,1-.6,0h0l-3.27-3a1.84,1.84,0,0,0-1.24-.49Z"/><path class="cls-2" d="M11.15,45.25a1.89,1.89,0,0,0-1.89,1.9,1.92,1.92,0,0,0,.42,1.19l4.82,5.89a1.71,1.71,0,0,0,1.43.64A1.81,1.81,0,0,0,17.38,54l10-16.1h0a.5.5,0,0,0-.13-.61.53.53,0,0,0-.75,0l0,0h0L16.39,48.75a.44.44,0,0,1-.62,0h0l-3.35-3a1.87,1.87,0,0,0-1.27-.49Z"/></g></g></svg>