<svg xmlns="http://www.w3.org/2000/svg" viewBox="0 0 69.87 69.87"><defs><style>.cls-1{fill:#fff;stroke:#fff;stroke-miterlimit:10;}</style></defs><title>logo-sm_2</title><g id="Layer_2" data-name="Layer 2"><g id="Layer_1-2" data-name="Layer 1"><path class="cls-1" d="M54.13,69.37H15.74A15.26,15.26,0,0,1,.5,54.13V15.74A15.26,15.26,0,0,1,15.74.5H54.13A15.26,15.26,0,0,1,69.37,15.74V54.13A15.26,15.26,0,0,1,54.13,69.37Zm-38.39-66A12.39,12.39,0,0,0,3.37,15.74V54.13A12.39,12.39,0,0,0,15.74,66.5H54.13A12.39,12.39,0,0,0,66.5,54.13V15.74A12.39,12.39,0,0,0,54.13,3.37Z"/><rect class="cls-1" x="29.43" y="22.43" width="27.04" height="4" rx="2"/><rect class="cls-1" x="29.58" y="44.83" width="27.04" height="4" rx="2"/><path class="cls-1" d="M10.61,25.21a1.86,1.86,0,0,0-1.44,3L13.88,34a1.69,1.69,0,0,0,1.41.62,1.78,1.78,0,0,0,1.41-.84L26.48,18h0a.5.5,0,0,0-.13-.59.51.51,0,0,0-.73,0l0,0h0L15.73,28.64a.42.42,0,0,1-.6,0h0l-3.27-3a1.84,1.84,0,0,0-1.24-.49Z"/><path class="cls-1" d="M11.15,45.25a1.89,1.89,0,0,0-1.89,1.9,1.92,1.92,0,0,0,.42,1.19l4.82,5.89a1.71,1.71,0,0,0,1.43.64A1.81,1.81,0,0,0,17.38,54l10-16.1h0a.5.5,0,0,0-.13-.61.53.53,0,0,0-.75,0l0,0h0L16.39,48.75a.44.44,0,0,1-.62,0h0l-3.35-3a1.87,1.87,0,0,0-1.27-.49Z"/></g></g></svg>